<svg width="148" height="126" viewBox="0 0 148 126" fill="none" xmlns="http://www.w3.org/2000/svg">
<path d="M145 43.8677C145 3 4 -23.7646 3 43.8677V60.5C3 27.6678 91 32.0782 91 60.5C91.0027 38.3132 144.993 38.6837 145 60.5001V43.8677Z" fill="#9FC28F"/>
<path d="M3 96.719C3 73.2949 56 74.8226 56 96.7189C56 79.5 91 79 91 96.5V60.5C91 32.0782 3 27.6678 3 60.5V96.719Z" fill="#BCF0F3"/>
<path d="M145 96.719V60.5001C144.993 38.6837 91.0027 38.3132 91 60.5V96.5C91 79 124 79.8991 124 96.719C124 84.4651 145 84.9756 145 96.719Z" fill="#BCF0F3"/>
<path d="M91 123H124V96.719C124 79.8991 91 79 91 96.5V123Z" fill="#F4DA98"/>
<path d="M124 123H145V96.719C145 84.9756 124 84.4651 124 96.719V123Z" fill="#A7EED4"/>
<path d="M91 96.5C91 79 56 79.5 56 96.7189V123H91V96.5Z" fill="#EC9DD1"/>
<path d="M56 96.7189C56 74.8226 3 73.2949 3 96.719V123H56V96.7189Z" fill="#9DB8EC"/>
<path d="M56 96.7189C56 74.8226 3 73.2949 3 96.719M56 96.7189C56 79.5 91 79 91 96.5M56 96.7189V123M3 96.719V60.5M3 96.719V123M91 96.5V123M91 96.5C91 79 124 79.8991 124 96.719M91 96.5V60.5M3 60.5V43.8677C4 -23.7646 145 3 145 43.8677V60.5001M3 60.5V123M3 60.5C3 27.6678 91 32.0782 91 60.5M3 123H124M3 123H56M124 123H145V96.719M124 123V96.719M124 123H91M145 96.719V60.5001M145 96.719C145 84.9756 124 84.4651 124 96.719M145 60.5001C144.993 38.6837 91.0027 38.3132 91 60.5M91 123H56" stroke="#020072" stroke-width="5"/>
</svg>
